# xmcd
#
# Track frame offsets:
#	150
#	26827
#	42346
#	56548
#	74582
#	92223
#	107822
#	125765
#	144508
#	179069
#	195563
#	225782
#
# Disc length: 3482 seconds
#
# Revision: 0
# Processed by: cddbd v1.5.2PL0 Copyright (c) Steve Scherf et al.
# Submitted via: EZCDAudioConverter 7.1.5.1
#
DISCID=af0d980c
DTITLE=Various Artist - Dance Fever Vol.4 [CD2]
DYEAR=2002
DGENRE=Dance
TTITLE0=C.C.Catch - I Can Lose My Heart Tonight
TTITLE1=Kaoma - Lambada
TTITLE2=Black Lace - Agadoo
TTITLE3=David Lyme - Playboy
TTITLE4=Grant Miller - Cloder Than Ice
TTITLE5=Eighth Wonder - Cross My Heart
TTITLE6=Den Harrow - Catch The Fox
TTITLE7=Den Harrow - Future Brain
TTITLE8=Ken Laszlo - Hey Hey Guy
TTITLE9=Lian Ross - Fantasy '98
TTITLE10=Angie Gold - Eat You Up
TTITLE11=Pseudo Echo - Funky Town (Remix)
EXTD=
EXTT0=
EXTT1=
EXTT2=
EXTT3=
EXTT4=
EXTT5=
EXTT6=
EXTT7=
EXTT8=
EXTT9=
EXTT10=
EXTT11=
PLAYORDER=
